<?xml version="1.0" encoding="utf-8"?>
<!-- Generator: Adobe Illustrator 15.1.0, SVG Export Plug-In  -->
<!DOCTYPE svg PUBLIC "-//W3C//DTD SVG 1.1//EN" "http://www.w3.org/Graphics/SVG/1.1/DTD/svg11.dtd" [
	<!ENTITY ns_flows "http://ns.adobe.com/Flows/1.0/">
]>
<svg version="1.1"
	 xmlns="http://www.w3.org/2000/svg" xmlns:xlink="http://www.w3.org/1999/xlink" xmlns:a="http://ns.adobe.com/AdobeSVGViewerExtensions/3.0/"
	 x="0px" y="0px" width="1200px" height="375px" viewBox="-289.604 -123.112 1200 375"
	 enable-background="new -289.604 -123.112 1200 375" xml:space="preserve">
<defs>
</defs>
<path fill="#CCCCCC" d="M34.146,106.575h45.3v21h-74.4v-19.5l45-64.8h-45v-21h74.4v19.5L34.146,106.575z"/>
<path fill="#CCCCCC" d="M112.22,123.525c-6.551-3.499-11.7-8.499-15.45-15c-3.75-6.499-5.625-14.101-5.625-22.8
	c0-8.6,1.898-16.175,5.7-22.726c3.799-6.548,9-11.573,15.6-15.075c6.6-3.499,13.999-5.25,22.2-5.25c8.198,0,15.6,1.751,22.2,5.25
	c6.6,3.502,11.798,8.527,15.6,15.075c3.799,6.551,5.7,14.126,5.7,22.726c0,8.602-1.927,16.176-5.775,22.725
	c-3.851,6.551-9.101,11.576-15.75,15.075c-6.651,3.501-14.076,5.25-22.275,5.25C126.144,128.775,118.768,127.026,112.22,123.525z
	 M146.87,101.175c3.45-3.6,5.175-8.749,5.175-15.449c0-6.699-1.676-11.851-5.025-15.45c-3.352-3.601-7.477-5.4-12.375-5.4
	c-5.002,0-9.15,1.776-12.45,5.325c-3.3,3.551-4.95,8.726-4.95,15.525c0,6.7,1.625,11.85,4.875,15.449
	c3.249,3.601,7.324,5.4,12.225,5.4C139.243,106.575,143.42,104.775,146.87,101.175z"/>
<path fill="#CCCCCC" d="M207.769,123.525c-6.551-3.499-11.7-8.499-15.45-15c-3.75-6.499-5.625-14.101-5.625-22.8
	c0-8.6,1.898-16.175,5.7-22.726c3.799-6.548,9-11.573,15.6-15.075c6.6-3.499,13.999-5.25,22.2-5.25c8.198,0,15.6,1.751,22.2,5.25
	c6.6,3.502,11.798,8.527,15.6,15.075c3.799,6.551,5.7,14.126,5.7,22.726c0,8.602-1.927,16.176-5.775,22.725
	c-3.851,6.551-9.101,11.576-15.75,15.075c-6.651,3.501-14.076,5.25-22.275,5.25C221.693,128.775,214.317,127.026,207.769,123.525z
	 M242.418,101.175c3.45-3.6,5.175-8.749,5.175-15.449c0-6.699-1.676-11.851-5.025-15.45c-3.352-3.601-7.477-5.4-12.375-5.4
	c-5.002,0-9.15,1.776-12.45,5.325c-3.3,3.551-4.95,8.726-4.95,15.525c0,6.7,1.625,11.85,4.875,15.449
	c3.249,3.601,7.324,5.4,12.225,5.4C234.792,106.575,238.969,104.775,242.418,101.175z"/>
<path fill="#CCCCCC" d="M418.968,52.425c6.15,6.301,9.226,15.052,9.226,26.25v48.9h-25.5v-45.45c0-5.399-1.426-9.574-4.275-12.524
	c-2.85-2.949-6.775-4.426-11.775-4.426c-5.001,0-8.925,1.477-11.774,4.426c-2.85,2.95-4.275,7.125-4.275,12.524v45.45h-25.5v-45.45
	c0-5.399-1.425-9.574-4.275-12.524c-2.85-2.949-6.775-4.426-11.774-4.426c-5.001,0-8.925,1.477-11.774,4.426
	c-2.851,2.95-4.275,7.125-4.275,12.524v45.45h-25.65v-83.7h25.65v10.5c2.6-3.499,6-6.274,10.199-8.325
	c4.201-2.048,8.949-3.074,14.25-3.074c6.301,0,11.926,1.35,16.875,4.05c4.951,2.7,8.824,6.551,11.625,11.55
	c2.9-4.599,6.85-8.349,11.851-11.25c4.999-2.899,10.448-4.35,16.35-4.35C404.542,42.976,412.818,46.125,418.968,52.425z"/>
<path fill="#CCCCCC" d="M448.066,31.2c-2.85-2.648-4.274-5.925-4.274-9.825c0-3.998,1.425-7.324,4.274-9.975
	c2.851-2.648,6.525-3.976,11.025-3.976c4.399,0,8.024,1.327,10.875,3.976c2.85,2.65,4.274,5.977,4.274,9.975
	c0,3.9-1.425,7.177-4.274,9.825c-2.851,2.65-6.476,3.975-10.875,3.975C454.592,35.175,450.917,33.851,448.066,31.2z M471.842,43.875
	v83.7h-25.65v-83.7H471.842z"/>
<path fill="#CCCCCC" d="M504.991,125.025c-5.699-2.499-10.199-5.925-13.5-10.275c-3.3-4.35-5.151-9.225-5.55-14.625h25.351
	c0.3,2.901,1.649,5.25,4.05,7.05c2.399,1.801,5.349,2.7,8.85,2.7c3.199,0,5.675-0.623,7.425-1.875
	c1.749-1.249,2.625-2.873,2.625-4.875c0-2.399-1.251-4.174-3.75-5.325c-2.5-1.148-6.551-2.423-12.149-3.824
	c-6-1.399-11.002-2.874-15-4.426c-4.001-1.549-7.451-3.998-10.351-7.35c-2.901-3.35-4.35-7.875-4.35-13.575
	c0-4.8,1.324-9.173,3.975-13.125c2.648-3.949,6.549-7.073,11.7-9.375c5.149-2.299,11.273-3.45,18.375-3.45
	c10.5,0,18.773,2.602,24.825,7.801c6.049,5.2,9.525,12.101,10.425,20.699h-23.7c-0.4-2.898-1.676-5.198-3.824-6.899
	c-2.152-1.699-4.977-2.55-8.476-2.55c-3,0-5.302,0.576-6.899,1.725c-1.602,1.15-2.4,2.726-2.4,4.725c0,2.4,1.275,4.2,3.825,5.4
	s6.524,2.4,11.925,3.6c6.199,1.602,11.25,3.176,15.15,4.726c3.899,1.552,7.324,4.05,10.274,7.5c2.948,3.45,4.475,8.076,4.575,13.875
	c0,4.9-1.376,9.276-4.125,13.125c-2.752,3.851-6.701,6.876-11.85,9.075c-5.152,2.198-11.126,3.3-17.926,3.3
	C517.19,128.775,510.691,127.526,504.991,125.025z"/>
<path fill="#CCCCCC" d="M620.791,105.825v21.75h-13.05c-9.301,0-16.552-2.273-21.75-6.825c-5.201-4.549-7.801-11.974-7.801-22.274
	V65.175h-10.199v-21.3h10.199V23.476h25.65v20.399h16.8v21.3h-16.8v33.601c0,2.501,0.6,4.301,1.8,5.399c1.2,1.102,3.199,1.65,6,1.65
	H620.791z"/>
<path fill="#333333" d="M29.1,99.15h45.3v21H0v-19.5l45-64.8H0v-21h74.4v19.5L29.1,99.15z"/>
<path fill="#333333" d="M107.174,116.1c-6.551-3.498-11.7-8.498-15.45-15c-3.75-6.498-5.625-14.099-5.625-22.8
	c0-8.6,1.898-16.174,5.7-22.725c3.799-6.549,9-11.574,15.6-15.075c6.6-3.499,13.999-5.25,22.2-5.25c8.198,0,15.6,1.751,22.2,5.25
	c6.6,3.501,11.798,8.526,15.6,15.075c3.799,6.551,5.7,14.125,5.7,22.725c0,8.602-1.927,16.177-5.775,22.726
	c-3.851,6.551-9.101,11.576-15.75,15.074c-6.651,3.502-14.076,5.25-22.275,5.25C121.098,121.35,113.722,119.602,107.174,116.1z
	 M141.824,93.75c3.45-3.601,5.175-8.749,5.175-15.45c0-6.698-1.676-11.85-5.025-15.449c-3.352-3.601-7.477-5.4-12.375-5.4
	c-5.002,0-9.15,1.776-12.45,5.324c-3.3,3.551-4.95,8.727-4.95,15.525c0,6.701,1.625,11.85,4.875,15.45
	c3.249,3.6,7.324,5.4,12.225,5.4C134.197,99.15,138.374,97.35,141.824,93.75z"/>
<path fill="#333333" d="M202.723,116.1c-6.551-3.498-11.7-8.498-15.45-15c-3.75-6.498-5.625-14.099-5.625-22.8
	c0-8.6,1.898-16.174,5.7-22.725c3.799-6.549,9-11.574,15.6-15.075c6.6-3.499,13.999-5.25,22.2-5.25c8.198,0,15.6,1.751,22.2,5.25
	c6.6,3.501,11.798,8.526,15.6,15.075c3.799,6.551,5.7,14.125,5.7,22.725c0,8.602-1.927,16.177-5.775,22.726
	c-3.851,6.551-9.101,11.576-15.75,15.074c-6.651,3.502-14.076,5.25-22.275,5.25C216.647,121.35,209.271,119.602,202.723,116.1z
	 M237.373,93.75c3.45-3.601,5.175-8.749,5.175-15.45c0-6.698-1.676-11.85-5.025-15.449c-3.352-3.601-7.477-5.4-12.375-5.4
	c-5.002,0-9.15,1.776-12.45,5.324c-3.3,3.551-4.95,8.727-4.95,15.525c0,6.701,1.625,11.85,4.875,15.45
	c3.249,3.6,7.324,5.4,12.225,5.4C229.746,99.15,233.923,97.35,237.373,93.75z"/>
<path fill="#333333" d="M413.922,45c6.15,6.3,9.226,15.052,9.226,26.25v48.9h-25.5V74.7c0-5.4-1.426-9.574-4.275-12.525
	c-2.85-2.948-6.775-4.425-11.775-4.425c-5.001,0-8.925,1.477-11.774,4.425c-2.85,2.951-4.275,7.125-4.275,12.525v45.45h-25.5V74.7
	c0-5.4-1.425-9.574-4.275-12.525c-2.85-2.948-6.775-4.425-11.774-4.425c-5.001,0-8.925,1.477-11.774,4.425
	c-2.851,2.951-4.275,7.125-4.275,12.525v45.45h-25.65v-83.7h25.65v10.5c2.6-3.5,6-6.274,10.199-8.325
	c4.201-2.048,8.949-3.075,14.25-3.075c6.301,0,11.926,1.35,16.875,4.051c4.951,2.699,8.824,6.551,11.625,11.549
	c2.9-4.598,6.85-8.348,11.851-11.25c4.999-2.898,10.448-4.35,16.35-4.35C399.496,35.55,407.772,38.7,413.922,45z"/>
<path fill="#333333" d="M443.021,23.774c-2.85-2.648-4.274-5.924-4.274-9.824c0-3.998,1.425-7.324,4.274-9.975
	C445.871,1.327,449.546,0,454.046,0c4.399,0,8.024,1.327,10.875,3.976c2.85,2.65,4.274,5.977,4.274,9.975
	c0,3.9-1.425,7.176-4.274,9.824c-2.851,2.651-6.476,3.976-10.875,3.976C449.546,27.75,445.871,26.426,443.021,23.774z
	 M466.796,36.45v83.7h-25.65v-83.7H466.796z"/>
<path fill="#333333" d="M499.945,117.6c-5.699-2.498-10.199-5.924-13.5-10.275c-3.3-4.35-5.151-9.225-5.55-14.624h25.351
	c0.3,2.901,1.649,5.249,4.05,7.05c2.399,1.801,5.349,2.699,8.85,2.699c3.199,0,5.675-0.623,7.425-1.875
	c1.749-1.248,2.625-2.873,2.625-4.875c0-2.398-1.251-4.173-3.75-5.323c-2.5-1.148-6.551-2.424-12.149-3.826
	c-6-1.398-11.002-2.873-15-4.425c-4.001-1.55-7.451-3.999-10.351-7.351c-2.901-3.349-4.35-7.875-4.35-13.574
	c0-4.801,1.324-9.174,3.975-13.125c2.648-3.949,6.549-7.074,11.7-9.375c5.149-2.299,11.273-3.45,18.375-3.45
	c10.5,0,18.773,2.602,24.825,7.8c6.049,5.201,9.525,12.102,10.425,20.7h-23.7c-0.4-2.899-1.676-5.198-3.824-6.899
	c-2.152-1.699-4.977-2.551-8.476-2.551c-3,0-5.302,0.576-6.899,1.725c-1.602,1.151-2.4,2.727-2.4,4.726
	c0,2.399,1.275,4.2,3.825,5.399c2.55,1.201,6.524,2.4,11.925,3.601c6.199,1.601,11.25,3.176,15.15,4.726
	c3.899,1.551,7.324,4.049,10.274,7.5c2.948,3.449,4.475,8.076,4.575,13.874c0,4.9-1.376,9.277-4.125,13.125
	c-2.752,3.852-6.701,6.877-11.85,9.076c-5.152,2.197-11.126,3.299-17.926,3.299C512.145,121.35,505.646,120.102,499.945,117.6z"/>
<path fill="#333333" d="M615.745,98.4v21.75h-13.05c-9.301,0-16.552-2.273-21.75-6.826c-5.201-4.549-7.801-11.973-7.801-22.274
	v-33.3h-10.199v-21.3h10.199v-20.4h25.65v20.4h16.8v21.3h-16.8v33.601c0,2.501,0.6,4.3,1.8,5.399c1.2,1.102,3.199,1.65,6,1.65
	H615.745z"/>
</svg>
