<?xml version="1.0" encoding="UTF-8"?>
<svg id="_圖層_1" data-name="圖層 1" xmlns="http://www.w3.org/2000/svg" viewBox="0 0 280 45.3">
  <defs>
    <style>
      .cls-1 {
        fill: #040000;
      }

      .cls-2 {
        fill: #323333;
      }
    </style>
  </defs>
  <g>
    <path class="cls-1" d="m0,44.43v-10.45L21.53,9.21v-1H.62V.87h29.5v10.45l-21.53,24.77v1h21.65v7.34H0Z"/>
    <path class="cls-1" d="m52.02,45.3c-3.07,0-5.83-.62-8.28-1.87-2.45-1.24-4.38-3.05-5.79-5.41-1.41-2.36-2.12-5.21-2.12-8.52v-1c0-3.32.7-6.16,2.12-8.53,1.41-2.36,3.34-4.17,5.79-5.41,2.45-1.24,5.21-1.87,8.28-1.87s5.83.62,8.28,1.87c2.45,1.24,4.38,3.05,5.79,5.41,1.41,2.37,2.12,5.21,2.12,8.53v1c0,3.32-.71,6.16-2.12,8.52-1.41,2.36-3.34,4.17-5.79,5.41s-5.21,1.87-8.28,1.87Zm0-6.97c2.41,0,4.4-.78,5.97-2.33,1.58-1.56,2.36-3.78,2.36-6.69v-.62c0-2.9-.78-5.13-2.33-6.69-1.56-1.56-3.56-2.33-6-2.33s-4.4.78-5.97,2.33c-1.58,1.56-2.37,3.79-2.37,6.69v.62c0,2.9.79,5.13,2.37,6.69,1.58,1.56,3.57,2.33,5.97,2.33Z"/>
    <path class="cls-1" d="m90.1,45.3c-3.07,0-5.83-.62-8.28-1.87s-4.38-3.05-5.79-5.41c-1.41-2.36-2.12-5.21-2.12-8.52v-1c0-3.32.71-6.16,2.12-8.53,1.41-2.36,3.34-4.17,5.79-5.41,2.45-1.24,5.21-1.87,8.28-1.87s5.83.62,8.28,1.87c2.45,1.24,4.38,3.05,5.79,5.41,1.41,2.37,2.12,5.21,2.12,8.53v1c0,3.32-.71,6.16-2.12,8.52-1.41,2.36-3.34,4.17-5.79,5.41s-5.21,1.87-8.28,1.87Zm0-6.97c2.41,0,4.4-.78,5.97-2.33,1.58-1.56,2.36-3.78,2.36-6.69v-.62c0-2.9-.78-5.13-2.33-6.69-1.56-1.56-3.56-2.33-6-2.33s-4.4.78-5.97,2.33c-1.58,1.56-2.36,3.79-2.36,6.69v.62c0,2.9.79,5.13,2.36,6.69s3.57,2.33,5.97,2.33Z"/>
    <path class="cls-1" d="m113.5,44.43V13.57h7.72v3.36h1.12c.54-1.04,1.43-1.94,2.68-2.71,1.24-.77,2.88-1.15,4.92-1.15,2.2,0,3.96.43,5.29,1.28,1.33.85,2.34,1.96,3.05,3.33h1.12c.7-1.33,1.7-2.43,2.99-3.3,1.29-.87,3.11-1.31,5.48-1.31,1.91,0,3.64.4,5.2,1.21s2.8,2.03,3.73,3.67c.93,1.64,1.4,3.7,1.4,6.19v20.29h-7.84v-19.73c0-1.7-.43-2.98-1.31-3.83-.87-.85-2.09-1.28-3.67-1.28-1.79,0-3.16.57-4.14,1.71-.98,1.14-1.46,2.77-1.46,4.89v18.23h-7.84v-19.73c0-1.7-.43-2.98-1.31-3.83-.87-.85-2.09-1.28-3.67-1.28-1.79,0-3.16.57-4.14,1.71-.98,1.14-1.46,2.77-1.46,4.89v18.23h-7.84Z"/>
    <path class="cls-1" d="m170.56,9.96c-1.41,0-2.6-.46-3.58-1.37-.98-.91-1.46-2.12-1.46-3.61s.49-2.7,1.46-3.61c.97-.91,2.17-1.37,3.58-1.37s2.65.46,3.61,1.37c.95.91,1.43,2.12,1.43,3.61s-.48,2.7-1.43,3.61c-.96.91-2.16,1.37-3.61,1.37Zm-3.92,34.47V13.57h7.84v30.86h-7.84Z"/>
    <path class="cls-1" d="m196.01,45.3c-4.02,0-7.32-.87-9.89-2.61-2.57-1.74-4.13-4.23-4.67-7.47l7.22-1.87c.29,1.45.78,2.59,1.46,3.42.69.83,1.53,1.42,2.55,1.77,1.02.35,2.13.53,3.33.53,1.82,0,3.17-.32,4.04-.96.87-.64,1.31-1.44,1.31-2.39s-.42-1.69-1.24-2.21c-.83-.52-2.16-.94-3.98-1.28l-1.74-.31c-2.16-.41-4.13-.98-5.91-1.71-1.78-.73-3.22-1.73-4.29-3.02s-1.62-2.95-1.62-4.98c0-3.07,1.12-5.42,3.36-7.06,2.24-1.64,5.18-2.46,8.84-2.46,3.44,0,6.3.77,8.59,2.3,2.28,1.54,3.77,3.55,4.48,6.04l-7.28,2.24c-.33-1.58-1.01-2.7-2.02-3.36s-2.27-1-3.76-1-2.64.26-3.42.78c-.79.52-1.18,1.24-1.18,2.15,0,1,.41,1.73,1.24,2.21.83.48,1.95.84,3.36,1.09l1.74.31c2.32.41,4.43.96,6.32,1.65s3.38,1.66,4.48,2.92c1.1,1.27,1.65,2.98,1.65,5.13,0,3.24-1.17,5.74-3.52,7.5-2.34,1.76-5.49,2.65-9.43,2.65Z"/>
    <path class="cls-1" d="m227.62,44.43c-2.03,0-3.68-.63-4.95-1.9-1.27-1.26-1.9-2.96-1.9-5.07v-17.42h-7.72v-6.47h7.72V3.98h7.84v9.58h8.46v6.47h-8.46v16.05c0,1.25.58,1.87,1.74,1.87h5.97v6.47h-8.71Z"/>
  </g>
  <g>
    <path class="cls-2" d="m251.33,44.81c-.45,0-.83-.15-1.12-.44-.29-.29-.43-.66-.43-1.12s.14-.82.43-1.11.66-.43,1.12-.43.83.14,1.12.43.43.66.43,1.11-.14.83-.43,1.12c-.29.29-.66.44-1.12.44Z"/>
    <path class="cls-2" d="m261.7,44.43c-.71,0-1.24-.18-1.59-.55-.35-.36-.53-.87-.53-1.52v-9.69h-4.25v-1.47h4.25v-4.95h1.63v4.95h4.63v1.47h-4.63v9.47c0,.55.27.82.82.82h3.1v1.47h-3.43Z"/>
    <path class="cls-2" d="m274.75,44.81c-1.6,0-2.96-.38-4.1-1.14-1.13-.76-1.83-2.02-2.08-3.78l1.61-.3c.15.96.44,1.72.88,2.27.44.55.99.95,1.63,1.18s1.33.35,2.06.35c1.09,0,1.96-.22,2.63-.67.66-.44.99-1.06.99-1.84s-.31-1.35-.94-1.66c-.63-.31-1.46-.55-2.49-.73l-1.25-.22c-.84-.15-1.59-.37-2.26-.67-.67-.3-1.2-.7-1.59-1.21-.39-.51-.58-1.14-.58-1.91,0-1.14.45-2.04,1.35-2.7.9-.65,2.09-.98,3.58-.98s2.72.34,3.63,1.02c.92.68,1.49,1.67,1.73,2.95l-1.52.33c-.18-1.05-.61-1.8-1.29-2.23s-1.53-.65-2.54-.65-1.8.19-2.4.57-.9.94-.9,1.69.27,1.26.82,1.59,1.29.58,2.23.75l1.25.22c.91.14,1.72.36,2.45.64s1.3.68,1.73,1.18c.43.51.64,1.18.64,2.02,0,1.25-.47,2.22-1.42,2.9s-2.22,1.02-3.84,1.02Z"/>
  </g>
</svg>