<svg xmlns="http://www.w3.org/2000/svg" xmlns:vectornator="http://vectornator.io" xml:space="preserve" stroke-miterlimit="10" style="fill-rule:nonzero;clip-rule:evenodd;stroke-linecap:round;stroke-linejoin:round" viewBox="0 0 16 16"><path vectornator:layerName="圖層1" d="M8.634 16c-4.414 0-8-3.59-8-8s3.59-8 8-8c.268 0 .536.013.804.04.235.022.441.17.54.382a.68.68 0 0 1-.053.66 6.613 6.613 0 0 0-1.15 3.734 6.632 6.632 0 0 0 5.989 6.623.672.672 0 0 1 .487 1.043A7.997 7.997 0 0 1 8.634 16ZM8.225 1.353C4.743 1.566 1.975 4.466 1.975 8a6.668 6.668 0 0 0 6.659 6.66 6.655 6.655 0 0 0 4.832-2.083 8.009 8.009 0 0 1-3.95-2.373 7.983 7.983 0 0 1-1.29-8.85Z"/></svg>