<svg xmlns="http://www.w3.org/2000/svg" viewBox="0 0 512 512"><path d="M256 432.3c-11.3 0-20.4 9.1-20.4 20.4v27.9c0 11.3 9.1 20.4 20.4 20.4s20.4-9.1 20.4-20.4v-27.9c0-11.3-9.1-20.4-20.4-20.4zm0-329.8c-84.6 0-153.5 68.8-153.5 153.5 0 84.6 68.8 153.5 153.5 153.5 84.6 0 153.5-68.8 153.5-153.5 0-84.6-68.9-153.5-153.5-153.5zm0 266.1c-62.1 0-112.6-50.5-112.6-112.6 0-62.1 50.5-112.6 112.6-112.6S368.6 193.9 368.6 256c0 62.1-50.5 112.6-112.6 112.6zm0-288.9c11.3 0 20.4-9.1 20.4-20.4V31.4c0-11.3-9.1-20.4-20.4-20.4s-20.4 9.1-20.4 20.4v27.9c0 11.3 9.1 20.4 20.4 20.4zm224.6 155.9h-27.9c-11.3 0-20.4 9.1-20.4 20.4 0 11.3 9.1 20.4 20.4 20.4h27.9c11.3 0 20.4-9.1 20.4-20.4 0-11.3-9.1-20.4-20.4-20.4zm-421.3 0H31.4c-11.3 0-20.4 9.1-20.4 20.4 0 11.3 9.1 20.4 20.4 20.4h27.9c11.3 0 20.4-9.1 20.4-20.4 0-11.3-9.1-20.4-20.4-20.4zm350.2-104.2 19.7-19.7c8-8 8-20.9 0-28.9s-20.9-8-28.9 0l-19.7 19.7c-8 8-8 20.9 0 28.9s20.9 7.9 28.9 0zm-307 249.2-19.7 19.7c-8 8-8 20.9 0 28.9s20.9 8 28.9 0l19.7-19.7c8-8 8-20.9 0-28.9s-20.9-7.9-28.9 0zm307 0c-8-8-20.9-8-28.9 0s-8 20.9 0 28.9l19.7 19.7c8 8 20.9 8 28.9 0s8-20.9 0-28.9l-19.7-19.7zm-307-249.2c8 8 20.9 8 28.9 0s8-20.9 0-28.9l-19.7-19.7c-8-8-20.9-8-28.9 0s-8 20.9 0 28.9l19.7 19.7z"/></svg>